PathFileType	4	(X/Y/Z)	OpenSim_Sub06_EMGBaseline_Accel.trc
DataRate	CameraRate	NumFrames	NumMarkers	Units	OrigDataRate	OrigDataStartFrame	OrigNumFrames
100	100	34	8	m	100	2068	8270
Frame#	Time	torso_imu_offset_imu	pelvis_imu_offset_imu	tibia_r_imu_offset_imu	femur_r_imu_offset_imu	tibia_l_imu_offset_imu	femur_l_imu_offset_imu	toes_r_imu_offset_imu	toes_l_imu_offset_imu
				X1	Y1	Z1	X2	Y2	Z2	X3	Y3	Z3	X4	Y4	Z4	X5	Y5	Z5	X6	Y6	Z6	X7	Y7	Z7	X8		Y8	Z8	

2068	20.67000000	8.94880310	0.54954524	5.73659455	7.84368277	-2.09886875	3.61098670	11.97198216	2.37863472	1.07183164	7.51619943	-4.22272045	3.21408383	10.12853620	-1.08955733	0.94850745	8.99332251	2.33786483	-3.14088962	19.62696180	5.72800145	5.41473225	5.58674727	0.99739045	10.95418797
2069	20.68000000	9.19082399	0.57859412	5.80476388	8.32052132	-1.98352088	3.59545423	11.54988031	4.18274846	3.22516901	7.14899593	-4.79823343	2.73178072	10.13477106	-1.33120419	1.03080089	8.89451483	2.53168946	-3.24171223	19.56264092	8.37279593	4.14356683	5.70806479	0.73832489	10.88982627
2070	20.69000000	9.38477065	0.68250902	5.96646476	8.59697041	-1.63911999	3.55537098	10.20613949	5.52075379	2.38170892	6.98482568	-5.49889531	2.25367875	10.02853558	-1.43551053	1.20927942	8.73237947	2.56793192	-3.18089316	18.48169949	9.49807017	2.07237530	5.63340813	0.76260514	10.97396646
2071	20.70000000	9.37638917	0.80754909	6.02325080	8.70921680	-1.29928027	3.59375549	6.93576217	5.85819948	2.88508449	7.01598679	-5.97020480	1.85679822	10.09356694	-1.57717803	1.38278942	8.71339713	2.32920438	-3.09554525	17.31339860	10.18110530	-0.16829923	5.40616790	0.76149219	11.22058856
2072	20.71000000	9.37799784	0.83418632	5.99897475	8.72034925	-0.99534197	3.47046275	4.28217255	5.09687031	2.71910887	7.19245974	-6.03576905	1.52923251	10.15658830	-1.59214617	1.51601708	8.84927443	2.02956514	-2.96260401	15.90550807	12.37176568	-1.46359852	5.21358797	0.70240409	11.28138218
2073	20.72000000	9.44024915	0.83378760	5.98015752	8.63515053	-0.97869442	3.37919237	4.69463674	4.11657725	1.66855675	7.65549854	-5.54176955	1.51418407	10.25811886	-1.43440809	1.55489253	8.98264333	1.74936386	-2.91806398	14.93140797	13.45857498	-2.69601652	5.46295509	0.47347089	11.26897147
2074	20.73000000	9.42997163	0.94252673	6.00381607	8.55287120	-1.02492520	3.20208119	6.67331913	2.64478358	1.91156203	7.95767777	-4.87140044	1.91748162	10.33687829	-0.91145474	1.53064716	9.04401038	1.57062736	-3.01984338	14.20255233	10.88899908	-4.11910439	5.49265050	0.26979388	11.16479080
2075	20.74000000	9.32141657	0.98889644	6.11423910	8.54713606	-1.17927648	2.96731236	8.18350783	1.59049031	1.88355831	8.03811815	-4.50564601	2.63859662	10.53741790	-0.32192779	1.61791094	9.08671629	1.59637356	-3.21325314	12.86777612	-0.41499859	-7.67929976	5.56543021	0.54943714	11.20335620
2076	20.75000000	9.08516294	1.07254353	6.13800432	8.59876495	-1.26432676	2.85042535	8.82708175	1.50249866	1.77417789	8.18487565	-4.35615500	3.33624707	10.60853644	0.11679367	1.69452761	8.91852622	1.88829361	-3.38568492	10.86471430	0.34892117	-10.67052730	5.13271405	0.69170058	11.48036447
2077	20.76000000	9.04211233	1.11849547	6.26900871	8.61204286	-1.37401802	3.00265700	9.25361060	1.02093233	2.57972161	8.29897209	-4.37188087	3.70113152	10.57727424	0.53201880	1.76378427	8.80799410	2.33422872	-3.31379551	7.67636767	21.53788458	8.00383557	5.30232305	1.00890074	11.60488619
2078	20.77000000	9.30750213	0.88937086	6.33106970	8.82719531	-1.26118100	4.03987668	9.83416251	0.69169031	6.92778071	8.95087449	-4.09537075	4.32808661	10.49348752	1.09721777	2.06725401	8.64885746	2.71487512	-3.14693409	19.90775900	-9.40490444	22.40595330	5.64126229	0.81306238	11.56219465
2079	20.78000000	10.21748625	0.63747046	6.47045974	9.32537714	-0.58148075	6.34998053	11.89794009	0.64295592	9.88294854	11.72945712	-4.15830361	4.86245787	10.60909771	1.81511261	2.19487512	8.57093279	3.18289842	-2.78202209	26.83352068	-8.71246770	20.72251033	5.43541795	1.04888355	12.01392402
2080	20.79000000	11.99018326	0.24539270	6.94000107	10.56465644	0.74207142	8.69682344	19.31357582	-2.30635498	8.39575889	18.69192702	-5.58302693	2.99820304	11.44711683	2.53194376	2.20556999	8.98000017	3.82135641	-2.41176217	-8.29049691	21.93808357	12.95533480	5.22170801	1.51919056	12.83233484
2081	20.80000000	13.54823075	-0.20769106	7.90075229	13.53594541	1.97168708	8.91245184	29.46351781	-8.85157569	6.81014595	26.49154578	-6.30256591	-0.72469144	12.91960356	3.35021237	2.51058785	9.77699799	4.19347493	-2.30969076	27.10510537	-11.39185948	11.12060193	5.14210235	2.58923401	13.53842913
2082	20.81000000	13.59052560	-0.25150317	8.91255232	17.08571771	3.57942956	8.85148401	22.58724039	-12.63156544	6.57973529	23.02632804	-3.43541038	-3.05891036	14.36954045	4.04735488	3.61911847	10.01064735	4.49792318	-2.29957632	-2.17024194	-1.87553640	8.68285372	5.21482355	2.80993019	13.86756637
2083	20.82000000	12.70757090	0.06207319	9.19776686	15.77015365	4.96782648	9.77477091	11.41737752	-7.88320693	7.58577473	14.17738445	-1.55233207	-0.81637555	15.24854873	3.75206902	4.89542850	10.15862003	5.04422987	-2.03947627	9.16681000	2.41706682	10.61390714	5.25802395	2.97858326	14.45934033
2084	20.83000000	11.91168459	-0.34848323	8.75997237	10.23551177	4.24203769	8.59565604	6.51884870	-0.36450514	6.09030394	8.23308978	-0.52939216	1.52138601	15.32194418	2.41482327	5.29127583	10.94911760	5.06540422	-1.61546265	5.61597244	2.05643671	9.17746701	5.25368478	3.14096773	15.50642296
2085	20.84000000	11.04574270	-1.22466665	7.65140117	8.51470691	0.76997303	6.46354677	3.19900958	5.56251872	-1.06672836	5.33802753	0.22308979	1.73060590	15.36821290	0.65406285	4.22034117	11.89430045	4.17285972	-1.06814838	3.98297683	-1.38143484	8.69032953	4.99514638	2.03010196	15.80283407
2086	20.85000000	9.96466102	-1.77476928	6.11235064	8.44848814	-1.64848230	5.35286674	2.95988440	7.75329060	-5.86750990	3.95903632	0.21949352	1.73473954	16.13153305	-0.44317707	2.60295016	12.33780801	3.15328744	-0.59771996	4.60690532	-3.83039001	8.15747562	5.06142117	1.72573446	15.54633046
2087	20.86000000	9.33496539	-2.05889654	5.01592646	7.82547985	-3.37654649	4.71096259	4.13663293	10.03577325	-4.93455998	3.94496505	0.84878623	1.97112477	16.60262119	-0.91453278	1.96137404	12.13025222	2.15687813	-0.36291990	4.52597010	-4.75879047	8.02647400	6.54285115	0.83759970	14.49812829
2088	20.87000000	8.92558792	-2.21347205	4.53689517	6.92263655	-4.17551247	4.20657049	6.22199980	14.52990129	-4.25698230	4.23101565	1.30978330	0.92089696	15.68756153	-1.44059956	2.23687637	11.68871407	1.31916745	-0.11036679	4.80454538	-5.33516992	7.55762508	7.07561629	0.17293862	14.22975882
2089	20.88000000	8.48796224	-2.13843613	4.43873463	6.78829687	-4.44153361	4.21342687	8.45625834	14.02760294	-4.91624720	4.83283531	0.45982895	-0.57829185	13.28008480	-2.68749295	2.55761077	11.94415436	0.50348346	-0.18604581	5.61301902	-4.66759234	7.12750888	6.30274903	-0.98029562	13.10828723
2090	20.89000000	8.33720372	-2.02694577	4.48307159	7.28788862	-4.00863651	4.61803419	10.67128703	9.97369810	-3.42120897	7.47229597	-1.13589295	-1.86297873	10.39780665	-4.22240845	2.47230259	12.41253941	-0.38036428	-0.60358053	5.26337651	-4.39216842	7.58463666	6.85387998	0.72561528	11.56903221
2091	20.90000000	8.29610508	-1.74021380	4.64828580	7.59403269	-2.78269218	5.19046070	10.71229186	7.04154201	-0.89879562	9.27883594	-2.82514037	-3.60472578	8.26743091	-5.54833961	2.20688557	12.59047443	-1.35062599	-1.12348797	5.06599646	-3.70760271	8.04190152	10.01007919	2.57066092	12.96756450
2092	20.91000000	8.45720312	-1.32542665	4.87681729	7.54197569	-1.21830138	5.49422801	10.08982836	5.35452638	0.48004852	10.55107965	-3.43442103	-5.32445465	6.71705968	-7.42353683	1.80928967	12.61178517	-2.28144628	-1.67134738	4.80131956	-2.79616022	8.51820421	10.81771925	3.03814780	12.02056232
2093	20.92000000	8.93445045	-0.97185628	5.13958406	7.69477098	0.12279910	5.63077192	10.08892851	3.84226766	1.63772036	10.44183383	-3.44422111	-5.77636703	5.78809606	-8.80041605	1.18049829	12.10642798	-2.86385236	-1.97571002	4.53916409	-2.12526776	8.91789883	12.18091483	3.12195862	8.52450407
2094	20.93000000	9.33195381	-0.89595963	5.44574564	8.29026119	1.27622147	5.87969826	10.81770280	1.18206858	2.54685061	8.65510273	-3.11272727	-3.90678460	5.27187535	-9.97162754	0.59524417	11.06355902	-3.24159395	-2.09412116	4.97199262	-1.45769392	9.03183946	6.73886066	3.00864327	9.33433128
2095	20.94000000	9.33904412	-0.97332185	5.82345485	8.75923911	2.22871730	6.42951148	11.50904702	-2.06571394	2.59154684	8.19067896	-2.58187493	-1.73247753	5.17255327	-10.78854409	-0.38011710	9.96639433	-3.46117367	-1.66580451	4.28875703	-1.85630690	8.99752776	8.02778133	2.70589694	20.89992398
2096	20.95000000	9.26458416	-1.20044119	6.01296507	9.30771538	2.87904247	7.20095315	11.21057809	-4.33286640	2.09462361	8.96792553	-2.16576200	-0.66867587	5.23049478	-10.48397823	-1.23371439	9.82457148	-2.10155536	-1.16925643	4.36722938	-2.06556974	8.92327804	28.78083996	2.28946698	26.84300132
2097	20.96000000	9.31481896	-1.63841703	6.00433720	9.80684932	3.29489160	7.46635140	10.37396079	-4.69081677	1.43489908	10.15001590	-1.63975747	-0.39943802	4.93298284	-9.61273375	-0.83972421	10.19117128	-0.16103215	-0.75424242	4.40901314	-2.18155791	8.90457073	7.87522793	6.41120561	19.31728391
2098	20.97000000	9.75475718	-2.05554358	6.03629337	10.11089363	3.03231544	6.73823682	9.96579701	-3.60360234	1.00045198	10.59630826	-1.03361265	-0.22262879	4.13223779	-8.09166505	0.43255389	10.53007447	1.34087258	-0.32879881	4.29001146	-2.79503751	8.58017851	-7.53112728	8.87394490	10.99772789
2099	20.98000000	10.18247951	-1.97473324	6.18249733	9.30046266	2.31345950	5.70451173	10.17142584	-1.73541482	0.57432696	10.13038750	-1.01412883	0.21715090	3.28392671	-6.85244338	1.77237710	10.41922726	2.45918576	0.00474911	4.92774968	-2.76477934	8.54643360	-6.02706191	8.05124602	10.58263219
2100	20.99000000	10.16541341	-1.20244680	6.25420477	8.25740843	1.87531663	4.97789339	10.73398424	0.43611304	0.37598882	9.68405101	-1.38145872	0.56705513	2.78525570	-5.50937944	3.38165813	10.34859167	3.37780738	0.42112340	4.39096584	-3.10798154	8.63088625	-0.35127728	3.25408135	9.07598685
2101	21	9.95284354	-0.69746152	6.06395838	7.91913860	1.70545670	4.76484379	11.05403374	2.43287742	0.29882000	9.48833524	-1.61492146	0.72175774	2.54990883	-4.31562408	5.55229965	10.22914414	3.79512957	0.94129468	4.48666406	-2.83489894	8.51109380	1.88953382	3.17349920	10.39387530
